<svg class="main-svg" xmlns="http://www.w3.org/2000/svg" xmlns:xlink="http://www.w3.org/1999/xlink" width="1200" height="800" style="" viewBox="0 0 1200 800"><rect x="0" y="0" width="1200" height="800" style="fill: rgb(255, 255, 255); fill-opacity: 1;"/><defs id="defs-7a4689"><g class="clips"><clipPath id="clip7a4689xyplot" class="plotclip"><rect width="1040" height="620"/></clipPath><clipPath class="axesclip" id="clip7a4689x"><rect x="80" y="0" width="1040" height="800"/></clipPath><clipPath class="axesclip" id="clip7a4689y"><rect x="0" y="100" width="1200" height="620"/></clipPath><clipPath class="axesclip" id="clip7a4689xy"><rect x="80" y="100" width="1040" height="620"/></clipPath></g><g class="gradients"/></defs><g class="bglayer"><rect class="bg" x="80" y="100" width="1040" height="620" style="fill: rgb(229, 236, 246); fill-opacity: 1; stroke-width: 0;"/></g><g class="layer-below"><g class="imagelayer"/><g class="shapelayer"/></g><g class="cartesianlayer"><g class="subplot xy"><g class="layer-subplot"><g class="shapelayer"/><g class="imagelayer"/></g><g class="gridlayer"><g class="x"><path class="xgrid crisp" transform="translate(240,0)" d="M0,100v620" style="stroke: rgb(255, 255, 255); stroke-opacity: 1; stroke-width: 1px;"/><path class="xgrid crisp" transform="translate(400,0)" d="M0,100v620" style="stroke: rgb(255, 255, 255); stroke-opacity: 1; stroke-width: 1px;"/><path class="xgrid crisp" transform="translate(560,0)" d="M0,100v620" style="stroke: rgb(255, 255, 255); stroke-opacity: 1; stroke-width: 1px;"/><path class="xgrid crisp" transform="translate(720,0)" d="M0,100v620" style="stroke: rgb(255, 255, 255); stroke-opacity: 1; stroke-width: 1px;"/><path class="xgrid crisp" transform="translate(880,0)" d="M0,100v620" style="stroke: rgb(255, 255, 255); stroke-opacity: 1; stroke-width: 1px;"/><path class="xgrid crisp" transform="translate(1040,0)" d="M0,100v620" style="stroke: rgb(255, 255, 255); stroke-opacity: 1; stroke-width: 1px;"/></g><g class="y"><path class="ygrid crisp" transform="translate(0,668.33)" d="M80,0h1040" style="stroke: rgb(255, 255, 255); stroke-opacity: 1; stroke-width: 1px;"/><path class="ygrid crisp" transform="translate(0,565)" d="M80,0h1040" style="stroke: rgb(255, 255, 255); stroke-opacity: 1; stroke-width: 1px;"/><path class="ygrid crisp" transform="translate(0,461.67)" d="M80,0h1040" style="stroke: rgb(255, 255, 255); stroke-opacity: 1; stroke-width: 1px;"/><path class="ygrid crisp" transform="translate(0,358.33)" d="M80,0h1040" style="stroke: rgb(255, 255, 255); stroke-opacity: 1; stroke-width: 1px;"/><path class="ygrid crisp" transform="translate(0,255)" d="M80,0h1040" style="stroke: rgb(255, 255, 255); stroke-opacity: 1; stroke-width: 1px;"/><path class="ygrid crisp" transform="translate(0,151.67000000000002)" d="M80,0h1040" style="stroke: rgb(255, 255, 255); stroke-opacity: 1; stroke-width: 1px;"/></g></g><g class="zerolinelayer"/><path class="xlines-below"/><path class="ylines-below"/><g class="overlines-below"/><g class="xaxislayer-below"/><g class="yaxislayer-below"/><g class="overaxes-below"/><g class="plot" transform="translate(80,100)" clip-path="url('#clip7a4689xyplot')"><g class="scatterlayer mlayer"><g class="trace scatter trace6b95b9" style="stroke-miterlimit: 2; opacity: 1;"><g class="fills"/><g class="errorbars"/><g class="lines"/><g class="points"><path class="point" transform="translate(656,136.09)" d="M7.5,0A7.5,7.5 0 1,1 0,-7.5A7.5,7.5 0 0,1 7.5,0Z" style="opacity: 1; stroke-width: 0px; fill: rgb(55, 4, 153); fill-opacity: 1;"/><path class="point" transform="translate(144,559.22)" d="M7.5,0A7.5,7.5 0 1,1 0,-7.5A7.5,7.5 0 0,1 7.5,0Z" style="opacity: 1; stroke-width: 0px; fill: rgb(248, 150, 64); fill-opacity: 1;"/><path class="point" transform="translate(64,286.32)" d="M7.5,0A7.5,7.5 0 1,1 0,-7.5A7.5,7.5 0 0,1 7.5,0Z" style="opacity: 1; stroke-width: 0px; fill: rgb(220, 94, 102); fill-opacity: 1;"/><path class="point" transform="translate(64,415.94)" d="M7.5,0A7.5,7.5 0 1,1 0,-7.5A7.5,7.5 0 0,1 7.5,0Z" style="opacity: 1; stroke-width: 0px; fill: rgb(143, 16, 161); fill-opacity: 1;"/><path class="point" transform="translate(544,75.89)" d="M7.5,0A7.5,7.5 0 1,1 0,-7.5A7.5,7.5 0 0,1 7.5,0Z" style="opacity: 1; stroke-width: 0px; fill: rgb(151, 20, 159); fill-opacity: 1;"/><path class="point" transform="translate(432,366.96)" d="M7.5,0A7.5,7.5 0 1,1 0,-7.5A7.5,7.5 0 0,1 7.5,0Z" style="opacity: 1; stroke-width: 0px; fill: rgb(13, 8, 135); fill-opacity: 1;"/><path class="point" transform="translate(928,58.62)" d="M7.5,0A7.5,7.5 0 1,1 0,-7.5A7.5,7.5 0 0,1 7.5,0Z" style="opacity: 1; stroke-width: 0px; fill: rgb(244, 236, 34); fill-opacity: 1;"/><path class="point" transform="translate(64,180.99)" d="M7.5,0A7.5,7.5 0 1,1 0,-7.5A7.5,7.5 0 0,1 7.5,0Z" style="opacity: 1; stroke-width: 0px; fill: rgb(34, 6, 144); fill-opacity: 1;"/><path class="point" transform="translate(320,100.35)" d="M7.5,0A7.5,7.5 0 1,1 0,-7.5A7.5,7.5 0 0,1 7.5,0Z" style="opacity: 1; stroke-width: 0px; fill: rgb(167, 34, 150); fill-opacity: 1;"/><path class="point" transform="translate(768,128.23)" d="M7.5,0A7.5,7.5 0 1,1 0,-7.5A7.5,7.5 0 0,1 7.5,0Z" style="opacity: 1; stroke-width: 0px; fill: rgb(240, 249, 33); fill-opacity: 1;"/><path class="point" transform="translate(736,72.08)" d="M7.5,0A7.5,7.5 0 1,1 0,-7.5A7.5,7.5 0 0,1 7.5,0Z" style="opacity: 1; stroke-width: 0px; fill: rgb(230, 109, 91); fill-opacity: 1;"/><path class="point" transform="translate(432,332.86)" d="M7.5,0A7.5,7.5 0 1,1 0,-7.5A7.5,7.5 0 0,1 7.5,0Z" style="opacity: 1; stroke-width: 0px; fill: rgb(247, 147, 66); fill-opacity: 1;"/><path class="point" transform="translate(272,284.37)" d="M7.5,0A7.5,7.5 0 1,1 0,-7.5A7.5,7.5 0 0,1 7.5,0Z" style="opacity: 1; stroke-width: 0px; fill: rgb(247, 147, 66); fill-opacity: 1;"/><path class="point" transform="translate(336,416.33)" d="M7.5,0A7.5,7.5 0 1,1 0,-7.5A7.5,7.5 0 0,1 7.5,0Z" style="opacity: 1; stroke-width: 0px; fill: rgb(155, 22, 158); fill-opacity: 1;"/><path class="point" transform="translate(512,152.6)" d="M7.5,0A7.5,7.5 0 1,1 0,-7.5A7.5,7.5 0 0,1 7.5,0Z" style="opacity: 1; stroke-width: 0px; fill: rgb(214, 84, 109); fill-opacity: 1;"/><path class="point" transform="translate(560,352.8)" d="M7.5,0A7.5,7.5 0 1,1 0,-7.5A7.5,7.5 0 0,1 7.5,0Z" style="opacity: 1; stroke-width: 0px; fill: rgb(183, 49, 139); fill-opacity: 1;"/><path class="point" transform="translate(240,100.98)" d="M7.5,0A7.5,7.5 0 1,1 0,-7.5A7.5,7.5 0 0,1 7.5,0Z" style="opacity: 1; stroke-width: 0px; fill: rgb(183, 49, 139); fill-opacity: 1;"/><path class="point" transform="translate(656,96.54)" d="M7.5,0A7.5,7.5 0 1,1 0,-7.5A7.5,7.5 0 0,1 7.5,0Z" style="opacity: 1; stroke-width: 0px; fill: rgb(240, 129, 78); fill-opacity: 1;"/><path class="point" transform="translate(336,452.87)" d="M7.5,0A7.5,7.5 0 1,1 0,-7.5A7.5,7.5 0 0,1 7.5,0Z" style="opacity: 1; stroke-width: 0px; fill: rgb(222, 97, 100); fill-opacity: 1;"/><path class="point" transform="translate(336,218.58)" d="M7.5,0A7.5,7.5 0 1,1 0,-7.5A7.5,7.5 0 0,1 7.5,0Z" style="opacity: 1; stroke-width: 0px; fill: rgb(222, 97, 100); fill-opacity: 1;"/><path class="point" transform="translate(448,207)" d="M7.5,0A7.5,7.5 0 1,1 0,-7.5A7.5,7.5 0 0,1 7.5,0Z" style="opacity: 1; stroke-width: 0px; fill: rgb(179, 46, 141); fill-opacity: 1;"/><path class="point" transform="translate(480,335.02)" d="M7.5,0A7.5,7.5 0 1,1 0,-7.5A7.5,7.5 0 0,1 7.5,0Z" style="opacity: 1; stroke-width: 0px; fill: rgb(147, 18, 160); fill-opacity: 1;"/><path class="point" transform="translate(448,80.25)" d="M7.5,0A7.5,7.5 0 1,1 0,-7.5A7.5,7.5 0 0,1 7.5,0Z" style="opacity: 1; stroke-width: 0px; fill: rgb(135, 12, 163); fill-opacity: 1;"/><path class="point" transform="translate(496,383.88)" d="M7.5,0A7.5,7.5 0 1,1 0,-7.5A7.5,7.5 0 0,1 7.5,0Z" style="opacity: 1; stroke-width: 0px; fill: rgb(252, 181, 48); fill-opacity: 1;"/></g><g class="text"><g class="textpoint" transform="translate(0,19.375)"><text x="656" y="136.09" text-anchor="middle" style="font-family: 'Times New Roman'; font-size: 12px; fill: rgb(0, 0, 0); fill-opacity: 1; white-space: pre;"><tspan style="font-weight:bold">N-Acetyl-D-glucosamine<tspan style="font-weight:bold"></tspan></tspan></text></g><g class="textpoint" transform="translate(0,19.375)"><text x="144" y="559.22" text-anchor="middle" style="font-family: 'Times New Roman'; font-size: 12px; fill: rgb(0, 0, 0); fill-opacity: 1; white-space: pre;"><tspan style="font-weight:bold">Acetate<tspan style="font-weight:bold"></tspan></tspan></text></g><g class="textpoint" transform="translate(0,19.375)"><text x="64" y="286.32" text-anchor="middle" style="font-family: 'Times New Roman'; font-size: 12px; fill: rgb(0, 0, 0); fill-opacity: 1; white-space: pre;"><tspan style="font-weight:bold">2-Oxoglutarate<tspan style="font-weight:bold"></tspan></tspan></text></g><g class="textpoint" transform="translate(0,19.375)"><text x="64" y="415.94" text-anchor="middle" style="font-family: 'Times New Roman'; font-size: 12px; fill: rgb(0, 0, 0); fill-opacity: 1; white-space: pre;"><tspan style="font-weight:bold">L-Alanine<tspan style="font-weight:bold"></tspan></tspan></text></g><g class="textpoint" transform="translate(0,19.375)"><text x="544" y="75.89" text-anchor="middle" style="font-family: 'Times New Roman'; font-size: 12px; fill: rgb(0, 0, 0); fill-opacity: 1; white-space: pre;"><tspan style="font-weight:bold">Fructose<tspan style="font-weight:bold"></tspan></tspan></text></g><g class="textpoint" transform="translate(0,19.375)"><text x="432" y="366.96" text-anchor="middle" style="font-family: 'Times New Roman'; font-size: 12px; fill: rgb(0, 0, 0); fill-opacity: 1; white-space: pre;"><tspan style="font-weight:bold">Fumarate<tspan style="font-weight:bold"></tspan></tspan></text></g><g class="textpoint" transform="translate(0,19.375)"><text x="928" y="58.62" text-anchor="middle" style="font-family: 'Times New Roman'; font-size: 12px; fill: rgb(0, 0, 0); fill-opacity: 1; white-space: pre;"><tspan style="font-weight:bold">Glucose 6-phosphate<tspan style="font-weight:bold"></tspan></tspan></text></g><g class="textpoint" transform="translate(0,19.375)"><text x="64" y="180.99" text-anchor="middle" style="font-family: 'Times New Roman'; font-size: 12px; fill: rgb(0, 0, 0); fill-opacity: 1; white-space: pre;"><tspan style="font-weight:bold">Galactose<tspan style="font-weight:bold"></tspan></tspan></text></g><g class="textpoint" transform="translate(0,19.375)"><text x="320" y="100.35" text-anchor="middle" style="font-family: 'Times New Roman'; font-size: 12px; fill: rgb(0, 0, 0); fill-opacity: 1; white-space: pre;"><tspan style="font-weight:bold">Glucosamine<tspan style="font-weight:bold"></tspan></tspan></text></g><g class="textpoint" transform="translate(0,19.375)"><text x="768" y="128.23" text-anchor="middle" style="font-family: 'Times New Roman'; font-size: 12px; fill: rgb(0, 0, 0); fill-opacity: 1; white-space: pre;"><tspan style="font-weight:bold">Gluconate<tspan style="font-weight:bold"></tspan></tspan></text></g><g class="textpoint" transform="translate(0,19.375)"><text x="736" y="72.08" text-anchor="middle" style="font-family: 'Times New Roman'; font-size: 12px; fill: rgb(0, 0, 0); fill-opacity: 1; white-space: pre;"><tspan style="font-weight:bold">Glucose<tspan style="font-weight:bold"></tspan></tspan></text></g><g class="textpoint" transform="translate(0,19.375)"><text x="432" y="332.86" text-anchor="middle" style="font-family: 'Times New Roman'; font-size: 12px; fill: rgb(0, 0, 0); fill-opacity: 1; white-space: pre;"><tspan style="font-weight:bold">Glycerol<tspan style="font-weight:bold"></tspan></tspan></text></g><g class="textpoint" transform="translate(0,19.375)"><text x="272" y="284.37" text-anchor="middle" style="font-family: 'Times New Roman'; font-size: 12px; fill: rgb(0, 0, 0); fill-opacity: 1; white-space: pre;"><tspan style="font-weight:bold">Guanosine<tspan style="font-weight:bold"></tspan></tspan></text></g><g class="textpoint" transform="translate(0,19.375)"><text x="336" y="416.33" text-anchor="middle" style="font-family: 'Times New Roman'; font-size: 12px; fill: rgb(0, 0, 0); fill-opacity: 1; white-space: pre;"><tspan style="font-weight:bold">L-Lactate<tspan style="font-weight:bold"></tspan></tspan></text></g><g class="textpoint" transform="translate(0,19.375)"><text x="512" y="152.6" text-anchor="middle" style="font-family: 'Times New Roman'; font-size: 12px; fill: rgb(0, 0, 0); fill-opacity: 1; white-space: pre;"><tspan style="font-weight:bold">Maltose<tspan style="font-weight:bold"></tspan></tspan></text></g><g class="textpoint" transform="translate(0,19.375)"><text x="560" y="352.8" text-anchor="middle" style="font-family: 'Times New Roman'; font-size: 12px; fill: rgb(0, 0, 0); fill-opacity: 1; white-space: pre;"><tspan style="font-weight:bold">L-Malate<tspan style="font-weight:bold"></tspan></tspan></text></g><g class="textpoint" transform="translate(0,19.375)"><text x="240" y="100.98" text-anchor="middle" style="font-family: 'Times New Roman'; font-size: 12px; fill: rgb(0, 0, 0); fill-opacity: 1; white-space: pre;"><tspan style="font-weight:bold">Mannose<tspan style="font-weight:bold"></tspan></tspan></text></g><g class="textpoint" transform="translate(0,19.375)"><text x="656" y="96.54" text-anchor="middle" style="font-family: 'Times New Roman'; font-size: 12px; fill: rgb(0, 0, 0); fill-opacity: 1; white-space: pre;"><tspan style="font-weight:bold">Mannitol<tspan style="font-weight:bold"></tspan></tspan></text></g><g class="textpoint" transform="translate(0,19.375)"><text x="336" y="452.87" text-anchor="middle" style="font-family: 'Times New Roman'; font-size: 12px; fill: rgb(0, 0, 0); fill-opacity: 1; white-space: pre;"><tspan style="font-weight:bold">Pyruvate<tspan style="font-weight:bold"></tspan></tspan></text></g><g class="textpoint" transform="translate(0,19.375)"><text x="336" y="218.58" text-anchor="middle" style="font-family: 'Times New Roman'; font-size: 12px; fill: rgb(0, 0, 0); fill-opacity: 1; white-space: pre;"><tspan style="font-weight:bold">Ribose<tspan style="font-weight:bold"></tspan></tspan></text></g><g class="textpoint" transform="translate(0,19.375)"><text x="448" y="207" text-anchor="middle" style="font-family: 'Times New Roman'; font-size: 12px; fill: rgb(0, 0, 0); fill-opacity: 1; white-space: pre;"><tspan style="font-weight:bold">Sorbitol<tspan style="font-weight:bold"></tspan></tspan></text></g><g class="textpoint" transform="translate(0,19.375)"><text x="480" y="335.02" text-anchor="middle" style="font-family: 'Times New Roman'; font-size: 12px; fill: rgb(0, 0, 0); fill-opacity: 1; white-space: pre;"><tspan style="font-weight:bold">Succinate<tspan style="font-weight:bold"></tspan></tspan></text></g><g class="textpoint" transform="translate(0,19.375)"><text x="448" y="80.25" text-anchor="middle" style="font-family: 'Times New Roman'; font-size: 12px; fill: rgb(0, 0, 0); fill-opacity: 1; white-space: pre;"><tspan style="font-weight:bold">Trehalose<tspan style="font-weight:bold"></tspan></tspan></text></g><g class="textpoint" transform="translate(0,19.375)"><text x="496" y="383.88" text-anchor="middle" style="font-family: 'Times New Roman'; font-size: 12px; fill: rgb(0, 0, 0); fill-opacity: 1; white-space: pre;"><tspan style="font-weight:bold">Xylose<tspan style="font-weight:bold"></tspan></tspan></text></g></g></g><g class="trace scatter tracee8b165" style="stroke-miterlimit: 2; opacity: 1;"><g class="fills"/><g class="errorbars"/><g class="lines"><path class="js-line" d="M-320,775L1280,-258.33" style="vector-effect: non-scaling-stroke; fill: none; stroke: rgb(127, 127, 127); stroke-opacity: 1; stroke-width: 2px; opacity: 1;"/></g><g class="points"/><g class="text"/></g></g></g><g class="overplot"/><path class="xlines-above crisp" d="M0,0" style="fill: none;"/><path class="ylines-above crisp" d="M0,0" style="fill: none;"/><g class="overlines-above"/><g class="xaxislayer-above"><g class="xtick"><text text-anchor="middle" x="0" y="736" transform="translate(80,0)" style="font-family: 'Times New Roman'; font-size: 15px; fill: rgb(0, 0, 0); fill-opacity: 1; white-space: pre;">0.2</text></g><g class="xtick"><text text-anchor="middle" x="0" y="736" transform="translate(240,0)" style="font-family: 'Times New Roman'; font-size: 15px; fill: rgb(0, 0, 0); fill-opacity: 1; white-space: pre;">0.3</text></g><g class="xtick"><text text-anchor="middle" x="0" y="736" transform="translate(400,0)" style="font-family: 'Times New Roman'; font-size: 15px; fill: rgb(0, 0, 0); fill-opacity: 1; white-space: pre;">0.4</text></g><g class="xtick"><text text-anchor="middle" x="0" y="736" transform="translate(560,0)" style="font-family: 'Times New Roman'; font-size: 15px; fill: rgb(0, 0, 0); fill-opacity: 1; white-space: pre;">0.5</text></g><g class="xtick"><text text-anchor="middle" x="0" y="736" transform="translate(720,0)" style="font-family: 'Times New Roman'; font-size: 15px; fill: rgb(0, 0, 0); fill-opacity: 1; white-space: pre;">0.6</text></g><g class="xtick"><text text-anchor="middle" x="0" y="736" transform="translate(880,0)" style="font-family: 'Times New Roman'; font-size: 15px; fill: rgb(0, 0, 0); fill-opacity: 1; white-space: pre;">0.7</text></g><g class="xtick"><text text-anchor="middle" x="0" y="736" transform="translate(1040,0)" style="font-family: 'Times New Roman'; font-size: 15px; fill: rgb(0, 0, 0); fill-opacity: 1; white-space: pre;">0.8</text></g></g><g class="yaxislayer-above"><g class="ytick"><text text-anchor="end" x="79" y="5.25" transform="translate(0,668.33)" style="font-family: 'Times New Roman'; font-size: 15px; fill: rgb(0, 0, 0); fill-opacity: 1; white-space: pre;">0.2</text></g><g class="ytick"><text text-anchor="end" x="79" y="5.25" transform="translate(0,565)" style="font-family: 'Times New Roman'; font-size: 15px; fill: rgb(0, 0, 0); fill-opacity: 1; white-space: pre;">0.3</text></g><g class="ytick"><text text-anchor="end" x="79" y="5.25" transform="translate(0,461.67)" style="font-family: 'Times New Roman'; font-size: 15px; fill: rgb(0, 0, 0); fill-opacity: 1; white-space: pre;">0.4</text></g><g class="ytick"><text text-anchor="end" x="79" y="5.25" transform="translate(0,358.33)" style="font-family: 'Times New Roman'; font-size: 15px; fill: rgb(0, 0, 0); fill-opacity: 1; white-space: pre;">0.5</text></g><g class="ytick"><text text-anchor="end" x="79" y="5.25" transform="translate(0,255)" style="font-family: 'Times New Roman'; font-size: 15px; fill: rgb(0, 0, 0); fill-opacity: 1; white-space: pre;">0.6</text></g><g class="ytick"><text text-anchor="end" x="79" y="5.25" transform="translate(0,151.67000000000002)" style="font-family: 'Times New Roman'; font-size: 15px; fill: rgb(0, 0, 0); fill-opacity: 1; white-space: pre;">0.7</text></g></g><g class="overaxes-above"/></g></g><g class="polarlayer"/><g class="ternarylayer"/><g class="geolayer"/><g class="funnelarealayer"/><g class="pielayer"/><g class="treemaplayer"/><g class="sunburstlayer"/><g class="glimages"/><defs id="topdefs-7a4689"><g class="clips"/></defs><g class="layer-above"><g class="imagelayer"/><g class="shapelayer"/></g><g class="infolayer"><g class="g-gtitle"/><g class="g-xtitle"><text class="xtitle" x="600" y="768" text-anchor="middle" style="font-family: 'Times New Roman'; font-size: 20px; fill: rgb(42, 63, 95); opacity: 1; font-weight: normal; white-space: pre;"><tspan style="font-weight:bold">Measured growth rate (h​<tspan style="font-size:70%" dy="-0.6em">-1</tspan><tspan dy="0.42em">​</tspan>)<tspan style="font-weight:bold"></tspan></tspan></text></g><g class="g-ytitle"><text class="ytitle" transform="rotate(-90,31.25,410)" x="31.25" y="410" text-anchor="middle" style="font-family: 'Times New Roman'; font-size: 20px; fill: rgb(42, 63, 95); opacity: 1; font-weight: normal; white-space: pre;"><tspan style="font-weight:bold">Predicted growth rate (h​<tspan style="font-size:70%" dy="-0.6em">-1</tspan><tspan dy="0.42em">​</tspan>)<tspan style="font-weight:bold"></tspan></tspan></text></g></g></svg>